<svg width="52" height="52" viewBox="0 0 52 52" fill="none" xmlns="http://www.w3.org/2000/svg">
<g filter="url(#filter0_d_11_225)">
<rect opacity="0.4" x="4.5" y="0.5" width="43" height="43" rx="9.5" fill="white" fill-opacity="0.08" stroke="url(#paint0_linear_11_225)"/>
<path d="M32.1666 24.3797C31.4949 24.2352 30.9635 24.5471 30.493 24.8194C30.0111 25.1001 29.0949 25.8434 28.5697 25.6531C25.8808 24.546 23.3519 22.1925 22.2571 19.4929C22.0642 18.9565 22.804 18.0344 23.0826 17.5469C23.3529 17.0749 23.6583 16.5385 23.519 15.8618C23.3932 15.2537 21.765 13.1819 21.1892 12.6153C20.8095 12.2411 20.4205 12.0353 20.0212 12.002C18.52 11.9376 16.8433 13.9407 16.5492 14.42C15.8125 15.4418 15.8166 16.8015 16.5616 18.4502C18.3569 22.8786 25.1472 29.5618 29.5922 31.4246C30.4125 31.8082 31.1626 32.0005 31.8364 32.0005C32.4957 32.0005 33.0828 31.8165 33.5874 31.4516C33.9681 31.2323 36.0534 29.4724 35.9987 27.9307C35.9657 27.5378 35.7604 27.1448 35.391 26.7644C34.8286 26.1833 32.7702 24.5065 32.1666 24.3797" fill="white"/>
</g>
<defs>
<filter id="filter0_d_11_225" x="0" y="0" width="52" height="52" filterUnits="userSpaceOnUse" color-interpolation-filters="sRGB">
<feFlood flood-opacity="0" result="BackgroundImageFix"/>
<feColorMatrix in="SourceAlpha" type="matrix" values="0 0 0 0 0 0 0 0 0 0 0 0 0 0 0 0 0 0 127 0" result="hardAlpha"/>
<feOffset dy="4"/>
<feGaussianBlur stdDeviation="2"/>
<feComposite in2="hardAlpha" operator="out"/>
<feColorMatrix type="matrix" values="0 0 0 0 0 0 0 0 0 0 0 0 0 0 0 0 0 0 0.25 0"/>
<feBlend mode="normal" in2="BackgroundImageFix" result="effect1_dropShadow_11_225"/>
<feBlend mode="normal" in="SourceGraphic" in2="effect1_dropShadow_11_225" result="shape"/>
</filter>
<linearGradient id="paint0_linear_11_225" x1="26" y1="0" x2="26" y2="44" gradientUnits="userSpaceOnUse">
<stop stop-color="white"/>
<stop offset="1" stop-color="white" stop-opacity="0"/>
</linearGradient>
</defs>
</svg>
