<svg height="auto" viewBox="0 0 2000 1000" xmlns="http://www.w3.org/2000/svg"><path d="M0 1000h28.07V277.164q0-14.035-14.035-14.035T0 277.164ZM35.088 1000h28.07V574.518q0-14.035-14.035-14.035t-14.035 14.035ZM70.175 1000h28.07V609.31q0-14.036-14.034-14.036-14.036 0-14.036 14.035ZM105.263 1000h28.07V714.658q0-14.035-14.035-14.035t-14.035 14.035ZM140.35 1000h28.071V385.222q0-14.035-14.035-14.035t-14.035 14.035ZM175.439 1000h28.07V580.115q0-14.035-14.035-14.035t-14.035 14.035ZM210.526 1000h28.07V706.28q0-14.035-14.035-14.035t-14.035 14.035ZM245.614 1000h28.07V641.015q0-14.035-14.035-14.035t-14.035 14.035ZM280.702 1000h28.07V238.281q0-14.035-14.035-14.035t-14.035 14.035ZM315.79 1000h28.07V691.495q0-14.036-14.035-14.036-14.036 0-14.036 14.036ZM350.877 1000h28.07V700.21q0-14.036-14.035-14.036t-14.035 14.035ZM385.965 1000h28.07V183.338q0-14.035-14.035-14.035t-14.035 14.035ZM421.053 1000h28.07V417.202q0-14.035-14.035-14.035t-14.035 14.035ZM456.14 1000h28.07V515.534q0-14.035-14.035-14.035t-14.035 14.035ZM491.228 1000h28.07V479.235q0-14.035-14.035-14.035t-14.035 14.035ZM526.316 1000h28.07V742.11q0-14.035-14.035-14.035t-14.035 14.035ZM561.404 1000h28.07V566.715q0-14.036-14.035-14.036t-14.035 14.036ZM596.491 1000h28.07V225.145q0-14.035-14.035-14.035t-14.035 14.035ZM631.579 1000h28.07V213.576q0-14.035-14.035-14.035t-14.035 14.035ZM666.667 1000h28.07V397.971q0-14.035-14.035-14.035t-14.035 14.035ZM701.754 1000h28.07V401.329q0-14.035-14.035-14.035t-14.035 14.035ZM736.842 1000h28.07V724.47q0-14.035-14.035-14.035t-14.035 14.036ZM771.93 1000H800V526.358q0-14.035-14.035-14.035t-14.035 14.035ZM807.018 1000h28.07V467.295q0-14.035-14.035-14.035t-14.035 14.035ZM842.105 1000h28.07V579.117q0-14.035-14.035-14.035t-14.035 14.035ZM877.193 1000h28.07V432.877q0-14.035-14.035-14.035t-14.035 14.035ZM912.28 1000h28.07V756.644q0-14.035-14.034-14.035-14.035 0-14.035 14.035ZM947.368 1000h28.07V528.511q0-14.035-14.034-14.035-14.036 0-14.036 14.035ZM982.456 1000h28.07V467.747q0-14.035-14.035-14.035t-14.035 14.035ZM1017.544 1000h28.07V695.88q0-14.035-14.035-14.035t-14.035 14.035ZM1052.632 1000h28.07V459.248q0-14.035-14.035-14.035t-14.035 14.035ZM1087.72 1000h28.07V699.526q0-14.035-14.036-14.035-14.035 0-14.035 14.035ZM1122.807 1000h28.07V201.933q0-14.035-14.035-14.035t-14.035 14.035ZM1157.895 1000h28.07V758.474q0-14.035-14.035-14.035t-14.035 14.035ZM1192.982 1000h28.07V211.504q0-14.035-14.034-14.035-14.036 0-14.036 14.035ZM1228.07 1000h28.07V562.731q0-14.035-14.035-14.035t-14.035 14.035ZM1263.158 1000h28.07V696.581q0-14.035-14.035-14.035t-14.035 14.035ZM1298.246 1000h28.07V511.989q0-14.035-14.035-14.035t-14.035 14.035ZM1333.333 1000h28.07V772.48q0-14.036-14.035-14.036t-14.035 14.035ZM1368.421 1000h28.07V220.784q0-14.035-14.035-14.035t-14.035 14.035ZM1403.509 1000h28.07V625.598q0-14.035-14.035-14.035t-14.035 14.035ZM1438.596 1000h28.07V651.85q0-14.036-14.034-14.036-14.036 0-14.036 14.035ZM1473.684 1000h28.07V799.49q0-14.036-14.035-14.036t-14.035 14.035ZM1508.772 1000h28.07V676.308q0-14.035-14.035-14.035t-14.035 14.035ZM1543.86 1000h28.07V665.922q0-14.035-14.035-14.035t-14.035 14.035ZM1578.947 1000h28.07V494.934q0-14.036-14.035-14.036t-14.035 14.036ZM1614.035 1000h28.07V721.428q0-14.035-14.035-14.035t-14.035 14.035ZM1649.123 1000h28.07V760.422q0-14.035-14.035-14.035t-14.035 14.035ZM1684.21 1000h28.07V427.533q0-14.035-14.034-14.035-14.035 0-14.035 14.035ZM1719.298 1000h28.07V267.966q0-14.035-14.035-14.035t-14.035 14.035ZM1754.386 1000h28.07V379.981q0-14.035-14.035-14.035t-14.035 14.035ZM1789.474 1000h28.07V504.224q0-14.035-14.035-14.035t-14.035 14.035ZM1824.561 1000h28.07V759.518q0-14.035-14.035-14.035t-14.035 14.035ZM1859.65 1000h28.07V569.86q0-14.036-14.036-14.036-14.035 0-14.035 14.035ZM1894.737 1000h28.07V600.986q0-14.035-14.035-14.035t-14.035 14.035ZM1929.825 1000h28.07V256.19q0-14.035-14.035-14.035t-14.035 14.035ZM1964.912 1000h28.07V427.453q0-14.035-14.035-14.035t-14.035 14.035Z" fill="#444cf7"/></svg>