<svg height="auto" viewBox="0 0 2000 1000" xmlns="http://www.w3.org/2000/svg"><path d="M0 1000h28.07V475.58q0-14.036-14.035-14.036T0 475.58ZM35.088 1000h28.07V640.645q0-14.035-14.035-14.035t-14.035 14.035ZM70.175 1000h28.07V517.615q0-14.035-14.034-14.035-14.036 0-14.036 14.035ZM105.263 1000h28.07V390.214q0-14.035-14.035-14.035t-14.035 14.035ZM140.35 1000h28.071V755.236q0-14.035-14.035-14.035t-14.035 14.035ZM175.439 1000h28.07V639.329q0-14.035-14.035-14.035t-14.035 14.035ZM210.526 1000h28.07V313.878q0-14.035-14.035-14.035t-14.035 14.035ZM245.614 1000h28.07V624.222q0-14.035-14.035-14.035t-14.035 14.035ZM280.702 1000h28.07V779.75q0-14.035-14.035-14.035t-14.035 14.035ZM315.79 1000h28.07V367.105q0-14.035-14.035-14.035-14.036 0-14.036 14.035ZM350.877 1000h28.07V635.257q0-14.035-14.035-14.035t-14.035 14.035ZM385.965 1000h28.07V561.383q0-14.035-14.035-14.035t-14.035 14.035ZM421.053 1000h28.07V668.38q0-14.034-14.035-14.034t-14.035 14.035ZM456.14 1000h28.07V384.174q0-14.036-14.035-14.036t-14.035 14.036ZM491.228 1000h28.07V620.916q0-14.035-14.035-14.035t-14.035 14.035ZM526.316 1000h28.07V350.033q0-14.035-14.035-14.035t-14.035 14.035ZM561.404 1000h28.07V310.916q0-14.035-14.035-14.035t-14.035 14.035ZM596.491 1000h28.07V545.894q0-14.035-14.035-14.035t-14.035 14.035ZM631.579 1000h28.07V629.452q0-14.035-14.035-14.035t-14.035 14.035ZM666.667 1000h28.07V635.367q0-14.035-14.035-14.035t-14.035 14.035ZM701.754 1000h28.07V456.813q0-14.035-14.035-14.035t-14.035 14.035ZM736.842 1000h28.07V746.834q0-14.035-14.035-14.035t-14.035 14.035ZM771.93 1000H800V140.372q0-14.035-14.035-14.035t-14.035 14.035ZM807.018 1000h28.07V213.108q0-14.035-14.035-14.035t-14.035 14.035ZM842.105 1000h28.07V565.857q0-14.035-14.035-14.035t-14.035 14.035ZM877.193 1000h28.07V265.727q0-14.035-14.035-14.035t-14.035 14.035ZM912.28 1000h28.07V308.508q0-14.035-14.034-14.035-14.035 0-14.035 14.035ZM947.368 1000h28.07V533.643q0-14.035-14.034-14.035-14.036 0-14.036 14.035ZM982.456 1000h28.07V776.081q0-14.035-14.035-14.035t-14.035 14.035ZM1017.544 1000h28.07V299.944q0-14.035-14.035-14.035t-14.035 14.035ZM1052.632 1000h28.07V239.104q0-14.035-14.035-14.035t-14.035 14.035ZM1087.72 1000h28.07V381.038q0-14.035-14.036-14.035-14.035 0-14.035 14.035ZM1122.807 1000h28.07V287.738q0-14.035-14.035-14.035t-14.035 14.035ZM1157.895 1000h28.07V262.587q0-14.035-14.035-14.035t-14.035 14.035ZM1192.982 1000h28.07V379.663q0-14.035-14.034-14.035-14.036 0-14.036 14.035ZM1228.07 1000h28.07V319.367q0-14.035-14.035-14.035t-14.035 14.035ZM1263.158 1000h28.07V373.052q0-14.035-14.035-14.035t-14.035 14.035ZM1298.246 1000h28.07V598.205q0-14.035-14.035-14.035t-14.035 14.035ZM1333.333 1000h28.07V344.442q0-14.035-14.035-14.035t-14.035 14.035ZM1368.421 1000h28.07V269.57q0-14.035-14.035-14.035t-14.035 14.035ZM1403.509 1000h28.07V663.048q0-14.035-14.035-14.035t-14.035 14.035ZM1438.596 1000h28.07V253.712q0-14.035-14.034-14.035-14.036 0-14.036 14.035ZM1473.684 1000h28.07V351.115q0-14.035-14.035-14.035t-14.035 14.035ZM1508.772 1000h28.07V203.264q0-14.035-14.035-14.035t-14.035 14.035ZM1543.86 1000h28.07V338.22q0-14.036-14.035-14.036t-14.035 14.035ZM1578.947 1000h28.07V615.13q0-14.035-14.035-14.035t-14.035 14.035ZM1614.035 1000h28.07V658.312q0-14.035-14.035-14.035t-14.035 14.035ZM1649.123 1000h28.07V397.942q0-14.035-14.035-14.035t-14.035 14.035ZM1684.21 1000h28.07V302.131q0-14.035-14.034-14.035-14.035 0-14.035 14.035ZM1719.298 1000h28.07V501.437q0-14.035-14.035-14.035t-14.035 14.035ZM1754.386 1000h28.07V279.327q0-14.036-14.035-14.036t-14.035 14.036ZM1789.474 1000h28.07V127.329q0-14.035-14.035-14.035t-14.035 14.035ZM1824.561 1000h28.07V265.16q0-14.034-14.035-14.034t-14.035 14.035ZM1859.65 1000h28.07V703.313q0-14.035-14.036-14.035-14.035 0-14.035 14.035ZM1894.737 1000h28.07V599.942q0-14.035-14.035-14.035t-14.035 14.035ZM1929.825 1000h28.07V628.065q0-14.035-14.035-14.035t-14.035 14.035ZM1964.912 1000h28.07V715.501q0-14.035-14.035-14.035t-14.035 14.035Z" fill="#444cf7"/></svg>