<svg height="auto" viewBox="0 0 2000 1000" xmlns="http://www.w3.org/2000/svg"><path d="M0 1000h28.07V702.516q0-14.035-14.035-14.035T0 702.516ZM35.088 1000h28.07V772.259q0-14.035-14.035-14.035t-14.035 14.035ZM70.175 1000h28.07V697.103q0-14.035-14.034-14.035-14.036 0-14.036 14.035ZM105.263 1000h28.07V795.383q0-14.035-14.035-14.035t-14.035 14.035ZM140.35 1000h28.071V285.208q0-14.035-14.035-14.035t-14.035 14.035ZM175.439 1000h28.07V464.125q0-14.035-14.035-14.035t-14.035 14.035ZM210.526 1000h28.07V658.877q0-14.035-14.035-14.035t-14.035 14.035ZM245.614 1000h28.07V183.814q0-14.036-14.035-14.036t-14.035 14.036ZM280.702 1000h28.07V399.626q0-14.035-14.035-14.035t-14.035 14.035ZM315.79 1000h28.07V793.061q0-14.035-14.035-14.035-14.036 0-14.036 14.035ZM350.877 1000h28.07V207.25q0-14.036-14.035-14.036t-14.035 14.035ZM385.965 1000h28.07V601.313q0-14.035-14.035-14.035t-14.035 14.035ZM421.053 1000h28.07V663.467q0-14.035-14.035-14.035t-14.035 14.035ZM456.14 1000h28.07V331.172q0-14.035-14.035-14.035t-14.035 14.035ZM491.228 1000h28.07V670.795q0-14.035-14.035-14.035t-14.035 14.035ZM526.316 1000h28.07V708.117q0-14.035-14.035-14.035t-14.035 14.035ZM561.404 1000h28.07V554.301q0-14.035-14.035-14.035t-14.035 14.035ZM596.491 1000h28.07V152.343q0-14.035-14.035-14.035t-14.035 14.035ZM631.579 1000h28.07V645.233q0-14.035-14.035-14.035t-14.035 14.035ZM666.667 1000h28.07V529.774q0-14.035-14.035-14.035t-14.035 14.035ZM701.754 1000h28.07V767.854q0-14.035-14.035-14.035t-14.035 14.035ZM736.842 1000h28.07V117.64q0-14.035-14.035-14.035t-14.035 14.035ZM771.93 1000H800V218.319q0-14.035-14.035-14.035t-14.035 14.035ZM807.018 1000h28.07V705.436q0-14.035-14.035-14.035t-14.035 14.035ZM842.105 1000h28.07V184.705q0-14.035-14.035-14.035t-14.035 14.035ZM877.193 1000h28.07V330.34q0-14.035-14.035-14.035t-14.035 14.035ZM912.28 1000h28.07V527.16q0-14.035-14.034-14.035-14.035 0-14.035 14.035ZM947.368 1000h28.07V183.802q0-14.035-14.034-14.035-14.036 0-14.036 14.035ZM982.456 1000h28.07V210.545q0-14.035-14.035-14.035t-14.035 14.035ZM1017.544 1000h28.07V406.415q0-14.035-14.035-14.035t-14.035 14.035ZM1052.632 1000h28.07V286.98q0-14.035-14.035-14.035t-14.035 14.036ZM1087.72 1000h28.07V602.51q0-14.035-14.036-14.035-14.035 0-14.035 14.035ZM1122.807 1000h28.07V625.223q0-14.035-14.035-14.035t-14.035 14.035ZM1157.895 1000h28.07V295.309q0-14.035-14.035-14.035t-14.035 14.035ZM1192.982 1000h28.07V433.322q0-14.035-14.034-14.035-14.036 0-14.036 14.035ZM1228.07 1000h28.07V555.045q0-14.035-14.035-14.035t-14.035 14.035ZM1263.158 1000h28.07V291.531q0-14.035-14.035-14.035t-14.035 14.035ZM1298.246 1000h28.07V762.145q0-14.035-14.035-14.035t-14.035 14.035ZM1333.333 1000h28.07V720.24q0-14.034-14.035-14.034t-14.035 14.035ZM1368.421 1000h28.07V342.161q0-14.035-14.035-14.035t-14.035 14.035ZM1403.509 1000h28.07V733.17q0-14.036-14.035-14.036t-14.035 14.035ZM1438.596 1000h28.07V284.138q0-14.035-14.034-14.035-14.036 0-14.036 14.035ZM1473.684 1000h28.07V366.242q0-14.035-14.035-14.035t-14.035 14.035ZM1508.772 1000h28.07V673.62q0-14.035-14.035-14.035t-14.035 14.035ZM1543.86 1000h28.07V287.416q0-14.035-14.035-14.035t-14.035 14.035ZM1578.947 1000h28.07V269.943q0-14.035-14.035-14.035t-14.035 14.035ZM1614.035 1000h28.07V696.002q0-14.035-14.035-14.035t-14.035 14.035ZM1649.123 1000h28.07V703.12q0-14.034-14.035-14.034t-14.035 14.035ZM1684.21 1000h28.07V586.201q0-14.035-14.034-14.035-14.035 0-14.035 14.035ZM1719.298 1000h28.07V583.618q0-14.035-14.035-14.035t-14.035 14.035ZM1754.386 1000h28.07V303.253q0-14.035-14.035-14.035t-14.035 14.035ZM1789.474 1000h28.07V734.559q0-14.035-14.035-14.035t-14.035 14.035ZM1824.561 1000h28.07V357.955q0-14.035-14.035-14.035t-14.035 14.035ZM1859.65 1000h28.07V200.036q0-14.035-14.036-14.035-14.035 0-14.035 14.035ZM1894.737 1000h28.07V636.022q0-14.035-14.035-14.035t-14.035 14.035ZM1929.825 1000h28.07V199.19q0-14.036-14.035-14.036t-14.035 14.035ZM1964.912 1000h28.07V115.321q0-14.035-14.035-14.035t-14.035 14.035Z" fill="#444cf7"/></svg>