<svg height="auto" viewBox="0 0 2000 1000" xmlns="http://www.w3.org/2000/svg"><path d="M0 1000h28.07V601.362q0-14.035-14.035-14.035T0 601.362ZM35.088 1000h28.07V618.583q0-14.035-14.035-14.035t-14.035 14.035ZM70.175 1000h28.07V629.528q0-14.035-14.034-14.035-14.036 0-14.036 14.035ZM105.263 1000h28.07V314.086q0-14.035-14.035-14.035t-14.035 14.035ZM140.35 1000h28.071V812.647q0-14.035-14.035-14.035t-14.035 14.035ZM175.439 1000h28.07V556.522q0-14.035-14.035-14.035t-14.035 14.035ZM210.526 1000h28.07V730.439q0-14.035-14.035-14.035t-14.035 14.035ZM245.614 1000h28.07V404.229q0-14.035-14.035-14.035t-14.035 14.035ZM280.702 1000h28.07V333.846q0-14.035-14.035-14.035t-14.035 14.035ZM315.79 1000h28.07V715.705q0-14.035-14.035-14.035-14.036 0-14.036 14.035ZM350.877 1000h28.07V708.8q0-14.035-14.035-14.035T350.877 708.8ZM385.965 1000h28.07V463.611q0-14.035-14.035-14.035t-14.035 14.035ZM421.053 1000h28.07V156.486q0-14.035-14.035-14.035t-14.035 14.035ZM456.14 1000h28.07V273.87q0-14.035-14.035-14.035T456.14 273.87ZM491.228 1000h28.07V607.227q0-14.035-14.035-14.035t-14.035 14.035ZM526.316 1000h28.07V116.365q0-14.035-14.035-14.035t-14.035 14.035ZM561.404 1000h28.07V135.387q0-14.035-14.035-14.035t-14.035 14.035ZM596.491 1000h28.07V757.667q0-14.035-14.035-14.035t-14.035 14.035ZM631.579 1000h28.07V363.688q0-14.035-14.035-14.035t-14.035 14.035ZM666.667 1000h28.07V246.96q0-14.035-14.035-14.035t-14.035 14.035ZM701.754 1000h28.07V337.345q0-14.035-14.035-14.035t-14.035 14.035ZM736.842 1000h28.07V378.134q0-14.035-14.035-14.035t-14.035 14.035ZM771.93 1000H800V147.571q0-14.035-14.035-14.035t-14.035 14.035ZM807.018 1000h28.07V674.115q0-14.035-14.035-14.035t-14.035 14.035ZM842.105 1000h28.07V792.817q0-14.035-14.035-14.035t-14.035 14.035ZM877.193 1000h28.07V141.281q0-14.035-14.035-14.035t-14.035 14.035ZM912.28 1000h28.07V315.61q0-14.034-14.034-14.034-14.035 0-14.035 14.035ZM947.368 1000h28.07V633.685q0-14.035-14.034-14.035-14.036 0-14.036 14.035ZM982.456 1000h28.07V247.595q0-14.035-14.035-14.035t-14.035 14.035ZM1017.544 1000h28.07V185.904q0-14.035-14.035-14.035t-14.035 14.035ZM1052.632 1000h28.07V321.04q0-14.035-14.035-14.035t-14.035 14.035ZM1087.72 1000h28.07V488.58q0-14.035-14.036-14.035-14.035 0-14.035 14.035ZM1122.807 1000h28.07V635.546q0-14.036-14.035-14.036t-14.035 14.036ZM1157.895 1000h28.07V564.748q0-14.035-14.035-14.035t-14.035 14.035ZM1192.982 1000h28.07V652.287q0-14.035-14.034-14.035-14.036 0-14.036 14.035ZM1228.07 1000h28.07V609.276q0-14.035-14.035-14.035t-14.035 14.035ZM1263.158 1000h28.07V760.143q0-14.035-14.035-14.035t-14.035 14.035ZM1298.246 1000h28.07V571.114q0-14.035-14.035-14.035t-14.035 14.035ZM1333.333 1000h28.07V301.847q0-14.035-14.035-14.035t-14.035 14.035ZM1368.421 1000h28.07V208.121q0-14.035-14.035-14.035t-14.035 14.035ZM1403.509 1000h28.07V350.577q0-14.036-14.035-14.036t-14.035 14.036ZM1438.596 1000h28.07V501.986q0-14.035-14.034-14.035-14.036 0-14.036 14.035ZM1473.684 1000h28.07V744.933q0-14.035-14.035-14.035t-14.035 14.035ZM1508.772 1000h28.07V688.954q0-14.035-14.035-14.035t-14.035 14.035ZM1543.86 1000h28.07V173.795q0-14.035-14.035-14.035t-14.035 14.035ZM1578.947 1000h28.07V359.215q0-14.036-14.035-14.036t-14.035 14.036ZM1614.035 1000h28.07V179.397q0-14.035-14.035-14.035t-14.035 14.035ZM1649.123 1000h28.07V570.98q0-14.035-14.035-14.035t-14.035 14.035ZM1684.21 1000h28.07V754.389q0-14.035-14.034-14.035-14.035 0-14.035 14.035ZM1719.298 1000h28.07V449.938q0-14.035-14.035-14.035t-14.035 14.035ZM1754.386 1000h28.07V800.531q0-14.035-14.035-14.035t-14.035 14.035ZM1789.474 1000h28.07V539.633q0-14.035-14.035-14.035t-14.035 14.035ZM1824.561 1000h28.07V419.06q0-14.034-14.035-14.034t-14.035 14.035ZM1859.65 1000h28.07V682.165q0-14.035-14.036-14.035-14.035 0-14.035 14.035ZM1894.737 1000h28.07V352.36q0-14.035-14.035-14.035t-14.035 14.035ZM1929.825 1000h28.07V684.41q0-14.036-14.035-14.036t-14.035 14.035ZM1964.912 1000h28.07V171.26q0-14.036-14.035-14.036t-14.035 14.035Z" fill="#444cf7"/></svg>