<svg height="auto" viewBox="0 0 2000 1000" xmlns="http://www.w3.org/2000/svg"><path d="M0 1000h28.07V338.724q0-14.035-14.035-14.035T0 338.724ZM35.088 1000h28.07V252.524q0-14.035-14.035-14.035t-14.035 14.035ZM70.175 1000h28.07V486.36q0-14.035-14.034-14.035-14.036 0-14.036 14.035ZM105.263 1000h28.07V759.17q0-14.035-14.035-14.035t-14.035 14.035ZM140.35 1000h28.071V157.176q0-14.035-14.035-14.035t-14.035 14.035ZM175.439 1000h28.07V483.392q0-14.035-14.035-14.035t-14.035 14.035ZM210.526 1000h28.07V363.966q0-14.035-14.035-14.035t-14.035 14.035ZM245.614 1000h28.07V560.002q0-14.035-14.035-14.035t-14.035 14.035ZM280.702 1000h28.07V483.907q0-14.036-14.035-14.036t-14.035 14.036ZM315.79 1000h28.07V764.97q0-14.034-14.035-14.034-14.036 0-14.036 14.035ZM350.877 1000h28.07V625.049q0-14.035-14.035-14.035t-14.035 14.035ZM385.965 1000h28.07V211.206q0-14.035-14.035-14.035t-14.035 14.035ZM421.053 1000h28.07V587.531q0-14.035-14.035-14.035t-14.035 14.035ZM456.14 1000h28.07V792.128q0-14.035-14.035-14.035t-14.035 14.035ZM491.228 1000h28.07V620.238q0-14.036-14.035-14.036t-14.035 14.036ZM526.316 1000h28.07V348.055q0-14.036-14.035-14.036t-14.035 14.036ZM561.404 1000h28.07V136.035q0-14.035-14.035-14.035t-14.035 14.035ZM596.491 1000h28.07V725.66q0-14.034-14.035-14.034t-14.035 14.035ZM631.579 1000h28.07V514.876q0-14.035-14.035-14.035t-14.035 14.035ZM666.667 1000h28.07V370.801q0-14.035-14.035-14.035T666.667 370.8ZM701.754 1000h28.07V749.264q0-14.035-14.035-14.035t-14.035 14.035ZM736.842 1000h28.07V673.944q0-14.035-14.035-14.035t-14.035 14.035ZM771.93 1000H800V451.208q0-14.035-14.035-14.035t-14.035 14.035ZM807.018 1000h28.07V354.451q0-14.035-14.035-14.035t-14.035 14.035ZM842.105 1000h28.07V461.46q0-14.036-14.035-14.036t-14.035 14.035ZM877.193 1000h28.07V295.291q0-14.035-14.035-14.035t-14.035 14.035ZM912.28 1000h28.07V171.242q0-14.035-14.034-14.035-14.035 0-14.035 14.035ZM947.368 1000h28.07V279.864q0-14.035-14.034-14.035-14.036 0-14.036 14.035ZM982.456 1000h28.07V284.003q0-14.035-14.035-14.035t-14.035 14.035ZM1017.544 1000h28.07V136.592q0-14.035-14.035-14.035t-14.035 14.035ZM1052.632 1000h28.07V532.622q0-14.036-14.035-14.036t-14.035 14.036ZM1087.72 1000h28.07V346.072q0-14.035-14.036-14.035-14.035 0-14.035 14.035ZM1122.807 1000h28.07V637.127q0-14.035-14.035-14.035t-14.035 14.035ZM1157.895 1000h28.07V430.296q0-14.035-14.035-14.035t-14.035 14.035ZM1192.982 1000h28.07V673.363q0-14.035-14.034-14.035-14.036 0-14.036 14.035ZM1228.07 1000h28.07V154.285q0-14.035-14.035-14.035t-14.035 14.035ZM1263.158 1000h28.07V354.673q0-14.035-14.035-14.035t-14.035 14.035ZM1298.246 1000h28.07V758.44q0-14.034-14.035-14.034t-14.035 14.035ZM1333.333 1000h28.07V342.017q0-14.035-14.035-14.035t-14.035 14.035ZM1368.421 1000h28.07V200.508q0-14.035-14.035-14.035t-14.035 14.035ZM1403.509 1000h28.07V248.304q0-14.035-14.035-14.035t-14.035 14.035ZM1438.596 1000h28.07V752.496q0-14.035-14.034-14.035-14.036 0-14.036 14.035ZM1473.684 1000h28.07V666.21q0-14.034-14.035-14.034t-14.035 14.035ZM1508.772 1000h28.07V296.144q0-14.036-14.035-14.036t-14.035 14.036ZM1543.86 1000h28.07V584.199q0-14.036-14.035-14.036T1543.86 584.2ZM1578.947 1000h28.07V498.647q0-14.036-14.035-14.036t-14.035 14.036ZM1614.035 1000h28.07V781.585q0-14.035-14.035-14.035t-14.035 14.035ZM1649.123 1000h28.07V217.423q0-14.035-14.035-14.035t-14.035 14.035ZM1684.21 1000h28.07V235.265q0-14.035-14.034-14.035-14.035 0-14.035 14.035ZM1719.298 1000h28.07V347.935q0-14.035-14.035-14.035t-14.035 14.035ZM1754.386 1000h28.07V201.834q0-14.036-14.035-14.036t-14.035 14.036ZM1789.474 1000h28.07V503.619q0-14.035-14.035-14.035t-14.035 14.035ZM1824.561 1000h28.07V369.036q0-14.035-14.035-14.035t-14.035 14.035ZM1859.65 1000h28.07V706.188q0-14.035-14.036-14.035-14.035 0-14.035 14.035ZM1894.737 1000h28.07V640.237q0-14.035-14.035-14.035t-14.035 14.035ZM1929.825 1000h28.07V339.377q0-14.035-14.035-14.035t-14.035 14.035ZM1964.912 1000h28.07V663.431q0-14.035-14.035-14.035t-14.035 14.035Z" fill="#444cf7"/></svg>