<svg height="auto" viewBox="0 0 2000 1000" xmlns="http://www.w3.org/2000/svg"><path d="M0 1000h28.07V140.018q0-14.035-14.035-14.035T0 140.018ZM35.088 1000h28.07V340.002q0-14.035-14.035-14.035t-14.035 14.035ZM70.175 1000h28.07V415.328q0-14.035-14.034-14.035-14.036 0-14.036 14.035ZM105.263 1000h28.07V729.457q0-14.035-14.035-14.035t-14.035 14.035ZM140.35 1000h28.071V291.62q0-14.036-14.035-14.036t-14.035 14.035ZM175.439 1000h28.07V711.925q0-14.035-14.035-14.035t-14.035 14.035ZM210.526 1000h28.07V149.372q0-14.036-14.035-14.036t-14.035 14.036ZM245.614 1000h28.07V440.165q0-14.035-14.035-14.035t-14.035 14.035ZM280.702 1000h28.07V761.87q0-14.035-14.035-14.035t-14.035 14.035ZM315.79 1000h28.07V166.094q0-14.035-14.035-14.035-14.036 0-14.036 14.035ZM350.877 1000h28.07V193.961q0-14.035-14.035-14.035t-14.035 14.035ZM385.965 1000h28.07V460.222q0-14.035-14.035-14.035t-14.035 14.035ZM421.053 1000h28.07V548.829q0-14.035-14.035-14.035t-14.035 14.035ZM456.14 1000h28.07V463.75q0-14.036-14.035-14.036T456.14 463.75ZM491.228 1000h28.07V626.44q0-14.036-14.035-14.036t-14.035 14.036ZM526.316 1000h28.07V330.63q0-14.035-14.035-14.035t-14.035 14.035ZM561.404 1000h28.07V478.434q0-14.035-14.035-14.035t-14.035 14.035ZM596.491 1000h28.07V175.706q0-14.035-14.035-14.035t-14.035 14.035ZM631.579 1000h28.07V519.837q0-14.035-14.035-14.035t-14.035 14.035ZM666.667 1000h28.07V320.682q0-14.035-14.035-14.035t-14.035 14.035ZM701.754 1000h28.07V275.75q0-14.036-14.035-14.036t-14.035 14.035ZM736.842 1000h28.07V421.161q0-14.035-14.035-14.035t-14.035 14.035ZM771.93 1000H800V229.104q0-14.035-14.035-14.035t-14.035 14.035ZM807.018 1000h28.07V771.761q0-14.035-14.035-14.035t-14.035 14.035ZM842.105 1000h28.07V593.64q0-14.036-14.035-14.036t-14.035 14.035ZM877.193 1000h28.07V250.15q0-14.035-14.035-14.035t-14.035 14.035ZM912.28 1000h28.07V403.601q0-14.035-14.034-14.035-14.035 0-14.035 14.035ZM947.368 1000h28.07V308q0-14.036-14.034-14.036-14.036 0-14.036 14.035ZM982.456 1000h28.07V736.893q0-14.035-14.035-14.035t-14.035 14.035ZM1017.544 1000h28.07V239.241q0-14.035-14.035-14.035t-14.035 14.035ZM1052.632 1000h28.07V650.875q0-14.035-14.035-14.035t-14.035 14.035ZM1087.72 1000h28.07V724.806q0-14.035-14.036-14.035-14.035 0-14.035 14.035ZM1122.807 1000h28.07V117.64q0-14.036-14.035-14.036t-14.035 14.035ZM1157.895 1000h28.07V539.977q0-14.035-14.035-14.035t-14.035 14.035ZM1192.982 1000h28.07V276.338q0-14.036-14.034-14.036-14.036 0-14.036 14.036ZM1228.07 1000h28.07V469.535q0-14.035-14.035-14.035t-14.035 14.035ZM1263.158 1000h28.07V321.064q0-14.035-14.035-14.035t-14.035 14.035ZM1298.246 1000h28.07V159.107q0-14.035-14.035-14.035t-14.035 14.035ZM1333.333 1000h28.07V725.855q0-14.035-14.035-14.035t-14.035 14.035ZM1368.421 1000h28.07V611.07q0-14.035-14.035-14.035t-14.035 14.035ZM1403.509 1000h28.07V573.52q0-14.035-14.035-14.035t-14.035 14.035ZM1438.596 1000h28.07V307.745q0-14.035-14.034-14.035-14.036 0-14.036 14.035ZM1473.684 1000h28.07V218.545q0-14.035-14.035-14.035t-14.035 14.035ZM1508.772 1000h28.07V505.568q0-14.035-14.035-14.035t-14.035 14.035ZM1543.86 1000h28.07V458.837q0-14.035-14.035-14.035t-14.035 14.035ZM1578.947 1000h28.07V205.875q0-14.035-14.035-14.035t-14.035 14.035ZM1614.035 1000h28.07V461.272q0-14.035-14.035-14.035t-14.035 14.035ZM1649.123 1000h28.07V566.037q0-14.035-14.035-14.035t-14.035 14.035ZM1684.21 1000h28.07V767.578q0-14.035-14.034-14.035-14.035 0-14.035 14.035ZM1719.298 1000h28.07V664.333q0-14.035-14.035-14.035t-14.035 14.035ZM1754.386 1000h28.07V178.994q0-14.035-14.035-14.035t-14.035 14.035ZM1789.474 1000h28.07V117.097q0-14.035-14.035-14.035t-14.035 14.035ZM1824.561 1000h28.07V398.937q0-14.035-14.035-14.035t-14.035 14.035ZM1859.65 1000h28.07V311.328q0-14.035-14.036-14.035-14.035 0-14.035 14.035ZM1894.737 1000h28.07V146.315q0-14.035-14.035-14.035t-14.035 14.035ZM1929.825 1000h28.07V778.085q0-14.035-14.035-14.035t-14.035 14.035ZM1964.912 1000h28.07V277.976q0-14.035-14.035-14.035t-14.035 14.035Z" fill="#444cf7"/></svg>