<svg width="219" height="23" viewBox="0 0 219 23" fill="none" xmlns="http://www.w3.org/2000/svg">
<path d="M5.18867 12.22H9.71867L16.5587 22H11.4887L5.18867 12.22ZM0.418672 0.999999H4.70867V22H0.418672V0.999999ZM3.02867 4.66V0.999999H7.46867C9.12867 0.999999 10.5387 1.28 11.6987 1.84C12.8587 2.4 13.7487 3.18 14.3687 4.18C14.9887 5.18 15.2987 6.35 15.2987 7.69C15.2987 9.01 14.9887 10.18 14.3687 11.2C13.7487 12.2 12.8587 12.98 11.6987 13.54C10.5387 14.1 9.12867 14.38 7.46867 14.38H3.02867V10.96H7.19867C7.95867 10.96 8.60867 10.84 9.14867 10.6C9.70867 10.34 10.1387 9.98 10.4387 9.52C10.7387 9.04 10.8887 8.47 10.8887 7.81C10.8887 7.15 10.7387 6.59 10.4387 6.13C10.1387 5.65 9.70867 5.29 9.14867 5.05C8.60867 4.79 7.95867 4.66 7.19867 4.66H3.02867ZM22.3522 11.5C22.3522 12.84 22.6322 14.03 23.1922 15.07C23.7522 16.11 24.5222 16.93 25.5022 17.53C26.4822 18.13 27.6222 18.43 28.9222 18.43C30.2222 18.43 31.3622 18.13 32.3422 17.53C33.3222 16.93 34.0822 16.11 34.6222 15.07C35.1822 14.03 35.4622 12.84 35.4622 11.5C35.4622 10.16 35.1922 8.97 34.6522 7.93C34.1122 6.89 33.3522 6.07 32.3722 5.47C31.3922 4.87 30.2422 4.57 28.9222 4.57C27.6222 4.57 26.4822 4.87 25.5022 5.47C24.5222 6.07 23.7522 6.89 23.1922 7.93C22.6322 8.97 22.3522 10.16 22.3522 11.5ZM17.8222 11.5C17.8222 9.9 18.1022 8.44 18.6622 7.12C19.2222 5.78 20.0022 4.62 21.0022 3.64C22.0022 2.66 23.1722 1.91 24.5122 1.39C25.8722 0.849999 27.3422 0.579999 28.9222 0.579999C30.5222 0.579999 31.9922 0.849999 33.3322 1.39C34.6722 1.91 35.8422 2.66 36.8422 3.64C37.8622 4.62 38.6422 5.78 39.1822 7.12C39.7422 8.44 40.0222 9.9 40.0222 11.5C40.0222 13.08 39.7422 14.55 39.1822 15.91C38.6422 17.25 37.8722 18.42 36.8722 19.42C35.8922 20.42 34.7222 21.2 33.3622 21.76C32.0222 22.3 30.5422 22.57 28.9222 22.57C27.3022 22.57 25.8122 22.3 24.4522 21.76C23.1122 21.2 21.9422 20.42 20.9422 19.42C19.9422 18.42 19.1722 17.25 18.6322 15.91C18.0922 14.55 17.8222 13.08 17.8222 11.5ZM46.5486 11.35V9.4H49.9386C50.5586 9.4 51.0986 9.3 51.5586 9.1C52.0186 8.9 52.3686 8.61 52.6086 8.23C52.8686 7.85 52.9986 7.4 52.9986 6.88C52.9986 6.08 52.7186 5.47 52.1586 5.05C51.6186 4.63 50.8786 4.42 49.9386 4.42H47.6286V18.58H50.3886C51.1086 18.58 51.7586 18.48 52.3386 18.28C52.9186 18.06 53.3686 17.72 53.6886 17.26C54.0286 16.8 54.1986 16.21 54.1986 15.49C54.1986 14.97 54.0986 14.53 53.8986 14.17C53.7186 13.79 53.4486 13.48 53.0886 13.24C52.7486 12.98 52.3486 12.8 51.8886 12.7C51.4286 12.58 50.9286 12.52 50.3886 12.52H46.5486V10.18H50.7786C51.7986 10.18 52.7686 10.29 53.6886 10.51C54.6286 10.73 55.4686 11.08 56.2086 11.56C56.9486 12.02 57.5286 12.62 57.9486 13.36C58.3886 14.1 58.6086 14.99 58.6086 16.03C58.6086 17.41 58.2786 18.54 57.6186 19.42C56.9786 20.3 56.0686 20.95 54.8886 21.37C53.7086 21.79 52.3386 22 50.7786 22H43.3386V0.999999H50.3286C51.7286 0.999999 52.9586 1.2 54.0186 1.6C55.0786 1.98 55.9086 2.56 56.5086 3.34C57.1086 4.12 57.4086 5.11 57.4086 6.31C57.4086 7.37 57.1086 8.28 56.5086 9.04C55.9086 9.8 55.0786 10.38 54.0186 10.78C52.9586 11.16 51.7286 11.35 50.3286 11.35H46.5486ZM65.5944 11.5C65.5944 12.84 65.8744 14.03 66.4344 15.07C66.9944 16.11 67.7644 16.93 68.7444 17.53C69.7244 18.13 70.8644 18.43 72.1644 18.43C73.4644 18.43 74.6044 18.13 75.5844 17.53C76.5644 16.93 77.3244 16.11 77.8644 15.07C78.4244 14.03 78.7044 12.84 78.7044 11.5C78.7044 10.16 78.4344 8.97 77.8944 7.93C77.3544 6.89 76.5944 6.07 75.6144 5.47C74.6344 4.87 73.4844 4.57 72.1644 4.57C70.8644 4.57 69.7244 4.87 68.7444 5.47C67.7644 6.07 66.9944 6.89 66.4344 7.93C65.8744 8.97 65.5944 10.16 65.5944 11.5ZM61.0644 11.5C61.0644 9.9 61.3444 8.44 61.9044 7.12C62.4644 5.78 63.2444 4.62 64.2444 3.64C65.2444 2.66 66.4144 1.91 67.7544 1.39C69.1144 0.849999 70.5844 0.579999 72.1644 0.579999C73.7644 0.579999 75.2344 0.849999 76.5744 1.39C77.9144 1.91 79.0844 2.66 80.0844 3.64C81.1044 4.62 81.8844 5.78 82.4244 7.12C82.9844 8.44 83.2644 9.9 83.2644 11.5C83.2644 13.08 82.9844 14.55 82.4244 15.91C81.8844 17.25 81.1144 18.42 80.1144 19.42C79.1344 20.42 77.9644 21.2 76.6044 21.76C75.2644 22.3 73.7844 22.57 72.1644 22.57C70.5444 22.57 69.0544 22.3 67.6944 21.76C66.3544 21.2 65.1844 20.42 64.1844 19.42C63.1844 18.42 62.4144 17.25 61.8744 15.91C61.3344 14.55 61.0644 13.08 61.0644 11.5ZM97.4049 14.95C97.8449 15.73 98.3249 16.41 98.8449 16.99C99.3849 17.57 99.9749 18.02 100.615 18.34C101.255 18.66 101.945 18.82 102.685 18.82C103.545 18.82 104.245 18.6 104.785 18.16C105.325 17.72 105.595 17.12 105.595 16.36C105.595 15.7 105.425 15.17 105.085 14.77C104.765 14.37 104.275 14.02 103.615 13.72C102.975 13.4 102.185 13.06 101.245 12.7C100.745 12.52 100.165 12.28 99.5049 11.98C98.8649 11.66 98.2549 11.26 97.6749 10.78C97.0949 10.28 96.6149 9.68 96.2349 8.98C95.8549 8.26 95.6649 7.4 95.6649 6.4C95.6649 5.2 95.9649 4.17 96.5649 3.31C97.1849 2.43 98.0149 1.76 99.0549 1.3C100.115 0.819999 101.295 0.579999 102.595 0.579999C103.935 0.579999 105.085 0.809999 106.045 1.27C107.025 1.71 107.835 2.28 108.475 2.98C109.135 3.66 109.645 4.37 110.005 5.11L106.645 6.97C106.365 6.47 106.025 6.02 105.625 5.62C105.245 5.2 104.805 4.87 104.305 4.63C103.805 4.37 103.235 4.24 102.595 4.24C101.755 4.24 101.125 4.44 100.705 4.84C100.285 5.22 100.075 5.67 100.075 6.19C100.075 6.71 100.245 7.17 100.585 7.57C100.925 7.95 101.445 8.32 102.145 8.68C102.845 9.02 103.725 9.37 104.785 9.73C105.465 9.97 106.115 10.27 106.735 10.63C107.375 10.99 107.945 11.43 108.445 11.95C108.965 12.45 109.365 13.05 109.645 13.75C109.945 14.43 110.095 15.22 110.095 16.12C110.095 17.14 109.895 18.05 109.495 18.85C109.095 19.65 108.545 20.33 107.845 20.89C107.145 21.43 106.355 21.84 105.475 22.12C104.615 22.42 103.705 22.57 102.745 22.57C101.465 22.57 100.265 22.33 99.1449 21.85C98.0449 21.35 97.0849 20.68 96.2649 19.84C95.4449 19 94.8049 18.09 94.3449 17.11L97.4049 14.95ZM117.043 11.5C117.043 12.88 117.353 14.09 117.973 15.13C118.613 16.15 119.443 16.94 120.463 17.5C121.483 18.04 122.593 18.31 123.793 18.31C124.793 18.31 125.683 18.18 126.462 17.92C127.243 17.66 127.943 17.31 128.563 16.87C129.203 16.43 129.753 15.95 130.213 15.43V20.26C129.353 20.94 128.413 21.47 127.393 21.85C126.393 22.23 125.123 22.42 123.583 22.42C121.983 22.42 120.493 22.16 119.113 21.64C117.753 21.12 116.563 20.37 115.543 19.39C114.543 18.41 113.763 17.26 113.203 15.94C112.663 14.6 112.393 13.12 112.393 11.5C112.393 9.88 112.663 8.41 113.203 7.09C113.763 5.75 114.543 4.59 115.543 3.61C116.563 2.63 117.753 1.88 119.113 1.36C120.493 0.839999 121.983 0.579999 123.583 0.579999C125.123 0.579999 126.393 0.769999 127.393 1.15C128.413 1.53 129.353 2.06 130.213 2.74V7.57C129.753 7.05 129.203 6.57 128.563 6.13C127.943 5.69 127.243 5.34 126.462 5.08C125.683 4.82 124.793 4.69 123.793 4.69C122.593 4.69 121.483 4.97 120.463 5.53C119.443 6.07 118.613 6.85 117.973 7.87C117.353 8.89 117.043 10.1 117.043 11.5ZM135.891 12.76V8.89H151.311V12.76H135.891ZM148.581 0.999999H152.871V22H148.581V0.999999ZM134.481 0.999999H138.771V22H134.481V0.999999ZM160.721 11.5C160.721 12.84 161.001 14.03 161.561 15.07C162.121 16.11 162.891 16.93 163.871 17.53C164.851 18.13 165.991 18.43 167.291 18.43C168.591 18.43 169.731 18.13 170.711 17.53C171.691 16.93 172.451 16.11 172.991 15.07C173.551 14.03 173.831 12.84 173.831 11.5C173.831 10.16 173.561 8.97 173.021 7.93C172.481 6.89 171.721 6.07 170.741 5.47C169.761 4.87 168.611 4.57 167.291 4.57C165.991 4.57 164.851 4.87 163.871 5.47C162.891 6.07 162.121 6.89 161.561 7.93C161.001 8.97 160.721 10.16 160.721 11.5ZM156.191 11.5C156.191 9.9 156.471 8.44 157.031 7.12C157.591 5.78 158.371 4.62 159.371 3.64C160.371 2.66 161.541 1.91 162.881 1.39C164.241 0.849999 165.711 0.579999 167.291 0.579999C168.891 0.579999 170.361 0.849999 171.701 1.39C173.041 1.91 174.211 2.66 175.211 3.64C176.231 4.62 177.011 5.78 177.551 7.12C178.111 8.44 178.391 9.9 178.391 11.5C178.391 13.08 178.111 14.55 177.551 15.91C177.011 17.25 176.241 18.42 175.241 19.42C174.261 20.42 173.091 21.2 171.731 21.76C170.391 22.3 168.911 22.57 167.291 22.57C165.671 22.57 164.181 22.3 162.821 21.76C161.481 21.2 160.311 20.42 159.311 19.42C158.311 18.42 157.541 17.25 157.001 15.91C156.461 14.55 156.191 13.08 156.191 11.5ZM185.038 11.5C185.038 12.84 185.318 14.03 185.878 15.07C186.438 16.11 187.208 16.93 188.188 17.53C189.168 18.13 190.308 18.43 191.608 18.43C192.908 18.43 194.048 18.13 195.028 17.53C196.008 16.93 196.768 16.11 197.308 15.07C197.868 14.03 198.148 12.84 198.148 11.5C198.148 10.16 197.878 8.97 197.338 7.93C196.798 6.89 196.038 6.07 195.058 5.47C194.078 4.87 192.928 4.57 191.608 4.57C190.308 4.57 189.168 4.87 188.188 5.47C187.208 6.07 186.438 6.89 185.878 7.93C185.318 8.97 185.038 10.16 185.038 11.5ZM180.508 11.5C180.508 9.9 180.788 8.44 181.348 7.12C181.908 5.78 182.688 4.62 183.688 3.64C184.688 2.66 185.858 1.91 187.198 1.39C188.558 0.849999 190.028 0.579999 191.608 0.579999C193.208 0.579999 194.678 0.849999 196.018 1.39C197.358 1.91 198.528 2.66 199.528 3.64C200.548 4.62 201.328 5.78 201.868 7.12C202.428 8.44 202.708 9.9 202.708 11.5C202.708 13.08 202.428 14.55 201.868 15.91C201.328 17.25 200.558 18.42 199.558 19.42C198.578 20.42 197.408 21.2 196.048 21.76C194.708 22.3 193.228 22.57 191.608 22.57C189.988 22.57 188.498 22.3 187.138 21.76C185.798 21.2 184.628 20.42 183.628 19.42C182.628 18.42 181.858 17.25 181.318 15.91C180.778 14.55 180.508 13.08 180.508 11.5ZM206.024 0.999999H210.314V18.25H218.684V22H206.024V0.999999Z" fill="white"/>
</svg>
