<svg width="135" height="14" viewBox="0 0 135 14" fill="none" xmlns="http://www.w3.org/2000/svg">
<path d="M3.482 7.294H6.632L10.574 13H7.01L3.482 7.294ZM0.332 0.399999H3.374V13H0.332V0.399999ZM2.24 2.974V0.399999H4.922C6.002 0.399999 6.902 0.573999 7.622 0.922C8.342 1.27 8.888 1.756 9.26 2.38C9.632 2.992 9.818 3.706 9.818 4.522C9.818 5.326 9.632 6.04 9.26 6.664C8.888 7.276 8.342 7.756 7.622 8.104C6.902 8.452 6.002 8.626 4.922 8.626H2.24V6.268H4.706C5.114 6.268 5.462 6.208 5.75 6.088C6.05 5.956 6.278 5.77 6.434 5.53C6.59 5.278 6.668 4.978 6.668 4.63C6.668 4.282 6.59 3.988 6.434 3.748C6.278 3.496 6.05 3.304 5.75 3.172C5.462 3.04 5.114 2.974 4.706 2.974H2.24ZM14.4883 6.7C14.4883 7.444 14.6323 8.104 14.9203 8.68C15.2203 9.244 15.6343 9.688 16.1623 10.012C16.7023 10.336 17.3323 10.498 18.0523 10.498C18.7603 10.498 19.3783 10.336 19.9063 10.012C20.4463 9.688 20.8603 9.244 21.1483 8.68C21.4483 8.104 21.5983 7.444 21.5983 6.7C21.5983 5.956 21.4543 5.302 21.1663 4.738C20.8783 4.162 20.4703 3.712 19.9423 3.388C19.4143 3.064 18.7843 2.902 18.0523 2.902C17.3323 2.902 16.7023 3.064 16.1623 3.388C15.6343 3.712 15.2203 4.162 14.9203 4.738C14.6323 5.302 14.4883 5.956 14.4883 6.7ZM11.2663 6.7C11.2663 5.728 11.4343 4.84 11.7703 4.036C12.1183 3.232 12.5983 2.536 13.2103 1.948C13.8223 1.36 14.5423 0.909999 15.3703 0.598C16.1983 0.274 17.0923 0.112 18.0523 0.112C19.0243 0.112 19.9183 0.274 20.7343 0.598C21.5623 0.909999 22.2823 1.36 22.8943 1.948C23.5063 2.536 23.9803 3.232 24.3163 4.036C24.6523 4.84 24.8203 5.728 24.8203 6.7C24.8203 7.672 24.6523 8.566 24.3163 9.382C23.9923 10.198 23.5243 10.906 22.9123 11.506C22.3123 12.106 21.5983 12.574 20.7703 12.91C19.9423 13.234 19.0363 13.396 18.0523 13.396C17.0563 13.396 16.1443 13.234 15.3163 12.91C14.4883 12.574 13.7683 12.106 13.1563 11.506C12.5563 10.906 12.0883 10.198 11.7523 9.382C11.4283 8.566 11.2663 7.672 11.2663 6.7ZM29.0375 6.736V5.404H31.0715C31.4195 5.404 31.7135 5.35 31.9535 5.242C32.2055 5.134 32.3975 4.984 32.5295 4.792C32.6615 4.588 32.7275 4.342 32.7275 4.054C32.7275 3.622 32.5835 3.298 32.2955 3.082C32.0075 2.866 31.5995 2.758 31.0715 2.758H29.8115V10.642H31.3595C31.7555 10.642 32.1095 10.594 32.4215 10.498C32.7335 10.39 32.9795 10.222 33.1595 9.994C33.3515 9.754 33.4475 9.43 33.4475 9.022C33.4475 8.758 33.3935 8.53 33.2855 8.338C33.1775 8.146 33.0275 7.99 32.8355 7.87C32.6435 7.75 32.4215 7.666 32.1695 7.618C31.9295 7.558 31.6595 7.528 31.3595 7.528H29.0375V5.872H31.7015C32.3135 5.872 32.9075 5.938 33.4835 6.07C34.0595 6.202 34.5815 6.418 35.0495 6.718C35.5175 7.006 35.8895 7.378 36.1655 7.834C36.4535 8.278 36.5975 8.818 36.5975 9.454C36.5975 10.294 36.3935 10.972 35.9855 11.488C35.5895 12.004 35.0255 12.388 34.2935 12.64C33.5615 12.88 32.6975 13 31.7015 13H26.7695V0.399999H31.3955C32.2715 0.399999 33.0395 0.519999 33.6995 0.76C34.3715 0.988 34.8995 1.342 35.2835 1.822C35.6795 2.29 35.8775 2.884 35.8775 3.604C35.8775 4.264 35.6795 4.828 35.2835 5.296C34.8995 5.764 34.3715 6.124 33.6995 6.376C33.0395 6.616 32.2715 6.736 31.3955 6.736H29.0375ZM41.2246 6.7C41.2246 7.444 41.3686 8.104 41.6566 8.68C41.9566 9.244 42.3706 9.688 42.8986 10.012C43.4386 10.336 44.0686 10.498 44.7886 10.498C45.4966 10.498 46.1146 10.336 46.6426 10.012C47.1826 9.688 47.5966 9.244 47.8846 8.68C48.1846 8.104 48.3346 7.444 48.3346 6.7C48.3346 5.956 48.1906 5.302 47.9026 4.738C47.6146 4.162 47.2066 3.712 46.6786 3.388C46.1506 3.064 45.5206 2.902 44.7886 2.902C44.0686 2.902 43.4386 3.064 42.8986 3.388C42.3706 3.712 41.9566 4.162 41.6566 4.738C41.3686 5.302 41.2246 5.956 41.2246 6.7ZM38.0026 6.7C38.0026 5.728 38.1706 4.84 38.5066 4.036C38.8546 3.232 39.3346 2.536 39.9466 1.948C40.5586 1.36 41.2786 0.909999 42.1066 0.598C42.9346 0.274 43.8286 0.112 44.7886 0.112C45.7606 0.112 46.6546 0.274 47.4706 0.598C48.2986 0.909999 49.0186 1.36 49.6306 1.948C50.2426 2.536 50.7166 3.232 51.0526 4.036C51.3886 4.84 51.5566 5.728 51.5566 6.7C51.5566 7.672 51.3886 8.566 51.0526 9.382C50.7286 10.198 50.2606 10.906 49.6486 11.506C49.0486 12.106 48.3346 12.574 47.5066 12.91C46.6786 13.234 45.7726 13.396 44.7886 13.396C43.7926 13.396 42.8806 13.234 42.0526 12.91C41.2246 12.574 40.5046 12.106 39.8926 11.506C39.2926 10.906 38.8246 10.198 38.4886 9.382C38.1646 8.566 38.0026 7.672 38.0026 6.7ZM52.8349 11.776C52.8349 11.32 52.9969 10.93 53.3209 10.606C53.6449 10.282 54.0469 10.12 54.5269 10.12C55.0309 10.12 55.4389 10.282 55.7509 10.606C56.0629 10.93 56.2189 11.32 56.2189 11.776C56.2189 12.232 56.0629 12.622 55.7509 12.946C55.4389 13.27 55.0309 13.432 54.5269 13.432C54.0469 13.432 53.6449 13.27 53.3209 12.946C52.9969 12.622 52.8349 12.232 52.8349 11.776ZM60.1477 8.572C60.3997 9.028 60.6817 9.424 60.9937 9.76C61.3177 10.096 61.6657 10.354 62.0377 10.534C62.4217 10.714 62.8237 10.804 63.2437 10.804C63.6877 10.804 64.0537 10.696 64.3417 10.48C64.6297 10.252 64.7737 9.946 64.7737 9.562C64.7737 9.238 64.6897 8.98 64.5217 8.788C64.3537 8.584 64.0837 8.392 63.7117 8.212C63.3397 8.032 62.8477 7.828 62.2357 7.6C61.9357 7.492 61.5877 7.342 61.1917 7.15C60.8077 6.958 60.4417 6.712 60.0937 6.412C59.7457 6.1 59.4577 5.728 59.2297 5.296C59.0017 4.852 58.8877 4.318 58.8877 3.694C58.8877 2.95 59.0797 2.308 59.4637 1.768C59.8597 1.228 60.3877 0.819999 61.0477 0.543999C61.7197 0.256 62.4637 0.112 63.2797 0.112C64.1197 0.112 64.8457 0.25 65.4577 0.526C66.0817 0.802 66.5977 1.15 67.0057 1.57C67.4137 1.99 67.7257 2.416 67.9417 2.848L65.6197 4.144C65.4397 3.844 65.2297 3.586 64.9897 3.37C64.7617 3.142 64.5037 2.968 64.2157 2.848C63.9397 2.716 63.6397 2.65 63.3157 2.65C62.8837 2.65 62.5537 2.746 62.3257 2.938C62.0977 3.118 61.9837 3.346 61.9837 3.622C61.9837 3.91 62.0917 4.162 62.3077 4.378C62.5357 4.594 62.8537 4.792 63.2617 4.972C63.6817 5.152 64.1857 5.344 64.7737 5.548C65.2177 5.716 65.6317 5.914 66.0157 6.142C66.3997 6.358 66.7357 6.622 67.0237 6.934C67.3237 7.246 67.5577 7.606 67.7257 8.014C67.8937 8.422 67.9777 8.89 67.9777 9.418C67.9777 10.054 67.8457 10.624 67.5817 11.128C67.3297 11.62 66.9817 12.034 66.5377 12.37C66.1057 12.706 65.6077 12.958 65.0437 13.126C64.4917 13.306 63.9217 13.396 63.3337 13.396C62.5177 13.396 61.7557 13.252 61.0477 12.964C60.3517 12.664 59.7457 12.262 59.2297 11.758C58.7137 11.254 58.3117 10.702 58.0237 10.102L60.1477 8.572ZM72.6037 6.7C72.6037 7.468 72.7777 8.134 73.1257 8.698C73.4737 9.25 73.9297 9.67 74.4937 9.958C75.0697 10.246 75.6997 10.39 76.3837 10.39C76.9837 10.39 77.5117 10.312 77.9677 10.156C78.4237 10 78.8317 9.796 79.1917 9.544C79.5517 9.292 79.8697 9.022 80.1457 8.734V12.01C79.6417 12.406 79.0897 12.718 78.4897 12.946C77.8897 13.174 77.1277 13.288 76.2037 13.288C75.1957 13.288 74.2657 13.132 73.4137 12.82C72.5617 12.508 71.8297 12.058 71.2177 11.47C70.6057 10.882 70.1317 10.186 69.7957 9.382C69.4597 8.578 69.2917 7.684 69.2917 6.7C69.2917 5.716 69.4597 4.822 69.7957 4.018C70.1317 3.214 70.6057 2.518 71.2177 1.93C71.8297 1.342 72.5617 0.891999 73.4137 0.579999C74.2657 0.267999 75.1957 0.112 76.2037 0.112C77.1277 0.112 77.8897 0.226 78.4897 0.454C79.0897 0.681999 79.6417 0.993999 80.1457 1.39V4.666C79.8697 4.378 79.5517 4.108 79.1917 3.856C78.8317 3.592 78.4237 3.388 77.9677 3.244C77.5117 3.088 76.9837 3.01 76.3837 3.01C75.6997 3.01 75.0697 3.154 74.4937 3.442C73.9297 3.73 73.4737 4.15 73.1257 4.702C72.7777 5.254 72.6037 5.92 72.6037 6.7ZM83.4788 7.726V4.99H93.0188V7.726H83.4788ZM91.0928 0.399999H94.1348V13H91.0928V0.399999ZM82.6328 0.399999H85.6748V13H82.6328V0.399999ZM99.2852 6.7C99.2852 7.444 99.4292 8.104 99.7172 8.68C100.017 9.244 100.431 9.688 100.959 10.012C101.499 10.336 102.129 10.498 102.849 10.498C103.557 10.498 104.175 10.336 104.703 10.012C105.243 9.688 105.657 9.244 105.945 8.68C106.245 8.104 106.395 7.444 106.395 6.7C106.395 5.956 106.251 5.302 105.963 4.738C105.675 4.162 105.267 3.712 104.739 3.388C104.211 3.064 103.581 2.902 102.849 2.902C102.129 2.902 101.499 3.064 100.959 3.388C100.431 3.712 100.017 4.162 99.7172 4.738C99.4292 5.302 99.2852 5.956 99.2852 6.7ZM96.0632 6.7C96.0632 5.728 96.2312 4.84 96.5672 4.036C96.9152 3.232 97.3952 2.536 98.0072 1.948C98.6192 1.36 99.3392 0.909999 100.167 0.598C100.995 0.274 101.889 0.112 102.849 0.112C103.821 0.112 104.715 0.274 105.531 0.598C106.359 0.909999 107.079 1.36 107.691 1.948C108.303 2.536 108.777 3.232 109.113 4.036C109.449 4.84 109.617 5.728 109.617 6.7C109.617 7.672 109.449 8.566 109.113 9.382C108.789 10.198 108.321 10.906 107.709 11.506C107.109 12.106 106.395 12.574 105.567 12.91C104.739 13.234 103.833 13.396 102.849 13.396C101.853 13.396 100.941 13.234 100.113 12.91C99.2852 12.574 98.5652 12.106 97.9532 11.506C97.3532 10.906 96.8852 10.198 96.5492 9.382C96.2252 8.566 96.0632 7.672 96.0632 6.7ZM114.068 6.7C114.068 7.444 114.212 8.104 114.5 8.68C114.8 9.244 115.214 9.688 115.742 10.012C116.282 10.336 116.912 10.498 117.632 10.498C118.34 10.498 118.958 10.336 119.486 10.012C120.026 9.688 120.44 9.244 120.728 8.68C121.028 8.104 121.178 7.444 121.178 6.7C121.178 5.956 121.034 5.302 120.746 4.738C120.458 4.162 120.05 3.712 119.522 3.388C118.994 3.064 118.364 2.902 117.632 2.902C116.912 2.902 116.282 3.064 115.742 3.388C115.214 3.712 114.8 4.162 114.5 4.738C114.212 5.302 114.068 5.956 114.068 6.7ZM110.846 6.7C110.846 5.728 111.014 4.84 111.35 4.036C111.698 3.232 112.178 2.536 112.79 1.948C113.402 1.36 114.122 0.909999 114.95 0.598C115.778 0.274 116.672 0.112 117.632 0.112C118.604 0.112 119.498 0.274 120.314 0.598C121.142 0.909999 121.862 1.36 122.474 1.948C123.086 2.536 123.56 3.232 123.896 4.036C124.232 4.84 124.4 5.728 124.4 6.7C124.4 7.672 124.232 8.566 123.896 9.382C123.572 10.198 123.104 10.906 122.492 11.506C121.892 12.106 121.178 12.574 120.35 12.91C119.522 13.234 118.616 13.396 117.632 13.396C116.636 13.396 115.724 13.234 114.896 12.91C114.068 12.574 113.348 12.106 112.736 11.506C112.136 10.906 111.668 10.198 111.332 9.382C111.008 8.566 110.846 7.672 110.846 6.7ZM126.35 0.399999H129.392V10.39H134.45V13H126.35V0.399999Z" fill="white"/>
</svg>
